<?xml version="1.0" encoding="UTF-8"?>
<svg id="Layer_2" data-name="Layer 2" xmlns="http://www.w3.org/2000/svg" xmlns:xlink="http://www.w3.org/1999/xlink" viewBox="0 0 45 48.11">
  <defs>
    <style>
      .cls-1 {
        fill: #f6b130;
      }

      .cls-2 {
        fill: url(#Degradado_sin_nombre_2);
      }

      .cls-3 {
        fill: url(#Degradado_sin_nombre_13);
      }

      .cls-4 {
        fill: url(#Degradado_sin_nombre_24);
        opacity: .8;
      }
    </style>
    <linearGradient id="Degradado_sin_nombre_2" data-name="Degradado sin nombre 2" x1="22.82" y1="48.11" x2="22.82" y2="34.86" gradientUnits="userSpaceOnUse">
      <stop offset=".4" stop-color="#d2701c"/>
      <stop offset=".87" stop-color="#eea22b"/>
      <stop offset="1" stop-color="#f6b130"/>
    </linearGradient>
    <linearGradient id="Degradado_sin_nombre_13" data-name="Degradado sin nombre 13" x1="22.5" y1="23.44" x2="22.5" y2="54.33" gradientUnits="userSpaceOnUse">
      <stop offset="0" stop-color="#f6b130"/>
      <stop offset=".2" stop-color="#e99930"/>
      <stop offset=".54" stop-color="#d67631"/>
      <stop offset=".82" stop-color="#cb6031"/>
      <stop offset="1" stop-color="#c75932"/>
    </linearGradient>
    <linearGradient id="Degradado_sin_nombre_24" data-name="Degradado sin nombre 24" x1="22.75" y1="32.24" x2="22.75" y2="0" gradientUnits="userSpaceOnUse">
      <stop offset="0" stop-color="#f6b130"/>
      <stop offset="1" stop-color="#000" stop-opacity=".2"/>
    </linearGradient>
  </defs>
  <g id="Layer_2_copy" data-name="Layer 2 copy">
    <g>
      <path class="cls-2" d="M24.43,41.87v-6.05c1.27-.45,2.59-.75,3.74-1.35,3.52-1.83,5.84-4.66,6.5-8.63.25-1.53.19-3.12.25-4.69.03-.69,0-1.38,0-2.12h1.43c-1.61-1.61-3.22-3.22-4.81-4.81,0,.05-.02.21-.02.37,0,1.81.01,3.62,0,5.43,0,.99-.16,1.99-.09,2.97.12,1.62-.2,3.11-.93,4.53-1.07,2.08-2.71,3.46-4.83,4.25-.85.47-1.82.74-2.85.74-.71,0-1.4-.13-2.03-.36v.02c-.87-.37-1.67-.62-2.39-1.02-1.5-.85-2.65-2.07-3.47-3.59-.6-1.1-.92-2.3-.93-3.56-.02-3.28,0-6.57,0-9.75-1.57,1.57-3.18,3.19-4.73,4.75h1.23c0,1.44.03,2.81,0,4.18-.07,3.07.87,5.82,2.81,8.16,1.73,2.09,3.93,3.54,6.65,4.08.83.17.84.16.84,1.04v10.97c0,.37.3.67.68.67h2.27c.37,0,.67-.3.67-.67l.02-5.56Z"/>
      <path class="cls-3" d="M23.18.05C9.83-.24.31,10.18,0,21.88c-.29,11.21,7.31,20.17,17.17,22.54v-3.22c-8.49-2.4-14.88-10.53-13.99-20.42C4.13,10.29,13.2,2.32,24.26,3.22c5.05.41,9.31,2.63,12.69,6.39,3.47,3.85,5.15,8.46,4.96,13.62-.21,5.61-2.52,10.33-6.75,14.02-2.36,2.06-5.05,3.44-8.03,4.15v3.17c10.25-2.1,17.43-11,17.84-20.87C45.55,9.89,34.75.3,23.18.05Z"/>
      <path class="cls-4" d="M5.58,32.24C.49,21.51,3.77,12.09,11.66,6.4c7.44-4.49,16.31-4.38,22.86.84,5.39,4.63,10.48,12.38,4.93,24.94,4.02-8.26,4.85-15.36,4.85-15.36-1.92-6.68-6.13-11.89-12.55-14.83C27.14-.12,22.31-.49,17.43.6,10.63,2.12,5.65,6.31,2.37,12.38c0,0-4.14,6.48,3.21,19.86Z"/>
      <path class="cls-1" d="M19.39,8.71h1.4v12.38c.63-.23,1.32-.36,2.03-.36.64,0,1.26.1,1.84.29v-12.27h1.32c-1.12-1.09-2.25-2.2-3.35-3.28-.95.95-2.08,2.07-3.24,3.24Z"/>
      <circle class="cls-1" cx="22.83" cy="26.62" r="3.5"/>
    </g>
  </g>
</svg>